<svg width="32" height="32" viewBox="0 0 32 32" fill="none" xmlns="http://www.w3.org/2000/svg">
<rect width="32" height="32" rx="1" fill="#090E0F"/>
<path d="M1.792 25.024C1.76 24.784 1.76 24.528 1.792 24.256C2.544 24.176 3.08 24.104 3.4 24.04C3.72 23.96 3.92 23.8 4 23.56C4.08 23.304 4.12 22.896 4.12 22.336V11.176C4.12 10.504 4.08 10.024 4 9.736C3.92 9.448 3.712 9.264 3.376 9.184C3.056 9.088 2.528 9.008 1.792 8.944C1.76 8.704 1.76 8.448 1.792 8.176C2.208 8.176 2.568 8.184 2.872 8.2C3.192 8.2 3.512 8.2 3.832 8.2C4.152 8.2 4.536 8.208 4.984 8.224C5.432 8.224 6 8.224 6.688 8.224C7.952 8.224 9.136 8.224 10.24 8.224C11.344 8.208 12.264 8.2 13 8.2C13.736 8.184 14.168 8.176 14.296 8.176C14.36 8.768 14.432 9.376 14.512 10C14.608 10.624 14.712 11.288 14.824 11.992C14.552 12.024 14.288 12.024 14.032 11.992C13.84 11.512 13.616 11.088 13.36 10.72C13.104 10.352 12.84 10.072 12.568 9.88C12.264 9.656 11.896 9.488 11.464 9.376C11.048 9.264 10.528 9.208 9.904 9.208H6.76V15.76H8.08C8.848 15.76 9.432 15.712 9.832 15.616C10.232 15.504 10.528 15.272 10.72 14.92C10.912 14.552 11.064 13.976 11.176 13.192C11.464 13.144 11.736 13.144 11.992 13.192C11.976 13.896 11.96 14.44 11.944 14.824C11.944 15.192 11.944 15.464 11.944 15.64C11.944 15.816 11.944 15.96 11.944 16.072C11.944 16.168 11.944 16.248 11.944 16.312L11.992 19.48C11.752 19.528 11.48 19.528 11.176 19.48C11.08 18.632 10.936 18.024 10.744 17.656C10.552 17.288 10.264 17.056 9.88 16.96C9.512 16.864 8.984 16.816 8.296 16.816H6.76V22.024C6.76 22.568 6.76 23.008 6.76 23.344C6.776 23.664 6.792 23.872 6.808 23.968H10.096C10.896 23.968 11.536 23.904 12.016 23.776C12.512 23.632 12.92 23.424 13.24 23.152C13.464 22.976 13.728 22.672 14.032 22.24C14.336 21.792 14.624 21.28 14.896 20.704C15.152 20.672 15.4 20.672 15.64 20.704C15.48 21.6 15.344 22.408 15.232 23.128C15.12 23.848 15.024 24.472 14.944 25C14.224 25 13.44 25 12.592 25C11.744 25 10.896 25 10.048 25C9.2 24.984 8.424 24.976 7.72 24.976C7.032 24.976 6.48 24.976 6.064 24.976C5.312 24.976 4.696 24.984 4.216 25C3.752 25 3.336 25 2.968 25C2.616 25.016 2.224 25.024 1.792 25.024ZM17.0716 25.024C17.0396 24.784 17.0396 24.528 17.0716 24.256C17.8396 24.176 18.3916 24.104 18.7276 24.04C19.0636 23.96 19.2716 23.8 19.3516 23.56C19.4316 23.32 19.4716 22.912 19.4716 22.336V11.176C19.4716 10.504 19.4316 10.024 19.3516 9.736C19.2716 9.448 19.0636 9.264 18.7276 9.184C18.4076 9.088 17.8796 9.008 17.1436 8.944C17.1116 8.704 17.1116 8.448 17.1436 8.176C17.5276 8.176 17.8476 8.184 18.1036 8.2C18.3756 8.2 18.6556 8.2 18.9436 8.2C19.2316 8.2 19.5916 8.208 20.0236 8.224C20.4716 8.224 21.0636 8.224 21.7996 8.224C22.7116 8.224 23.6396 8.224 24.5836 8.224C25.5276 8.208 26.3996 8.2 27.1996 8.2C28.0156 8.2 28.6716 8.2 29.1676 8.2C29.6796 8.184 29.9516 8.176 29.9836 8.176C30.0636 8.784 30.1516 9.416 30.2476 10.072C30.3436 10.728 30.4476 11.424 30.5596 12.16C30.4316 12.176 30.2956 12.184 30.1516 12.184C30.0236 12.184 29.8956 12.176 29.7676 12.16C29.3516 11.088 28.8636 10.336 28.3036 9.904C27.7276 9.44 26.8236 9.208 25.5916 9.208H22.1116V16H23.6956C24.4636 16 25.0476 15.952 25.4476 15.856C25.8476 15.744 26.1436 15.512 26.3356 15.16C26.5276 14.792 26.6796 14.216 26.7916 13.432C27.0796 13.384 27.3516 13.384 27.6076 13.432C27.5916 14.104 27.5756 14.64 27.5596 15.04C27.5596 15.424 27.5596 15.728 27.5596 15.952C27.5596 16.176 27.5596 16.384 27.5596 16.576C27.5596 16.752 27.5596 16.952 27.5596 17.176C27.5596 17.4 27.5596 17.712 27.5596 18.112C27.5756 18.512 27.5916 19.056 27.6076 19.744C27.3676 19.792 27.0956 19.792 26.7916 19.744C26.6956 18.896 26.5516 18.288 26.3596 17.92C26.1676 17.536 25.8796 17.296 25.4956 17.2C25.1276 17.104 24.5996 17.056 23.9116 17.056H22.1116V22.024C22.1116 22.52 22.1276 22.904 22.1596 23.176C22.1916 23.448 22.2876 23.664 22.4476 23.824C22.6076 23.968 22.8476 24.064 23.1676 24.112C23.5036 24.16 23.9836 24.208 24.6076 24.256C24.6556 24.512 24.6556 24.768 24.6076 25.024C24.2716 25.024 23.8636 25.016 23.3836 25C22.9036 25 22.4236 25 21.9436 25C21.4796 24.984 21.0876 24.976 20.7676 24.976C20.4636 24.976 20.0876 24.984 19.6396 25C19.1916 25 18.7356 25 18.2716 25C17.8236 25.016 17.4236 25.024 17.0716 25.024Z" fill="#FAFAFA"/>
</svg>
