<svg width="56" height="54" viewBox="0 0 56 54" fill="none" xmlns="http://www.w3.org/2000/svg">
<rect width="56" height="54" rx="27" fill="white"/>
<path d="M10.4004 31H6.52148C6.49023 31 6.47461 30.9805 6.47461 30.9414L6.48633 22.6973C6.48633 22.666 6.50195 22.6504 6.5332 22.6504H10.3887C10.4199 22.6504 10.4355 22.6699 10.4355 22.709V24.0508C10.4355 24.082 10.4199 24.0977 10.3887 24.0977H7.92773V25.9727H10.3887C10.4199 25.9727 10.4355 25.9883 10.4355 26.0195L10.4473 27.3789C10.4473 27.4102 10.4316 27.4258 10.4004 27.4258H7.92773V29.5234H10.4004C10.4316 29.5234 10.4473 29.543 10.4473 29.582V30.9531C10.4473 30.9844 10.4316 31 10.4004 31ZM12.9199 31H11.5605C11.5293 31 11.5137 30.9805 11.5137 30.9414L11.5371 22.6973C11.5371 22.666 11.5527 22.6504 11.584 22.6504H14.0098C14.4434 22.6504 14.8418 22.7559 15.2051 22.9668C15.5684 23.1777 15.8574 23.4609 16.0723 23.8164C16.291 24.1719 16.4004 24.5742 16.4004 25.0234C16.4004 25.3164 16.3555 25.582 16.2656 25.8203C16.1758 26.0586 16.0703 26.2598 15.9492 26.4238C15.832 26.5879 15.7246 26.709 15.627 26.7871C16.0605 27.2676 16.2773 27.832 16.2773 28.4805L16.2891 30.9414C16.2891 30.9805 16.2695 31 16.2305 31H14.8711C14.8398 31 14.8242 30.9883 14.8242 30.9648V28.4805C14.8242 28.1914 14.7227 27.9414 14.5195 27.7305C14.3164 27.5195 14.0664 27.4141 13.7695 27.4141H12.9785L12.9668 30.9414C12.9668 30.9805 12.9512 31 12.9199 31ZM14.0098 24.0859H12.9785V25.9727H14.0098C14.2559 25.9727 14.4746 25.8809 14.666 25.6973C14.8613 25.5137 14.959 25.2891 14.959 25.0234C14.959 24.7695 14.8652 24.5508 14.6777 24.3672C14.4902 24.1797 14.2676 24.0859 14.0098 24.0859ZM18.7207 31H17.3613C17.3223 31 17.3027 30.9805 17.3027 30.9414L17.3145 22.6973C17.3145 22.666 17.3301 22.6504 17.3613 22.6504H18.709C18.7402 22.6504 18.7559 22.666 18.7559 22.6973L18.7676 30.9414C18.7676 30.9805 18.752 31 18.7207 31ZM22.0312 31.1172C21.5977 31.1172 21.2012 31.0078 20.8418 30.7891C20.4863 30.5703 20.2031 30.2773 19.9922 29.9102C19.7852 29.5391 19.6816 29.127 19.6816 28.6738L19.6934 24.9297C19.6934 24.4844 19.7949 24.082 19.998 23.7227C20.2012 23.3594 20.4805 23.0684 20.8359 22.8496C21.1953 22.627 21.5938 22.5156 22.0312 22.5156C22.4766 22.5156 22.873 22.623 23.2207 22.8379C23.5723 23.0527 23.8516 23.3438 24.0586 23.7109C24.2695 24.0742 24.375 24.4805 24.375 24.9297V25.4805C24.375 25.5117 24.3594 25.5273 24.3281 25.5273H22.9805C22.9492 25.5273 22.9336 25.5117 22.9336 25.4805V24.9297C22.9336 24.6641 22.8477 24.4355 22.6758 24.2441C22.5039 24.0527 22.2891 23.957 22.0312 23.957C21.7461 23.957 21.5273 24.0547 21.375 24.25C21.2227 24.4453 21.1465 24.6719 21.1465 24.9297V28.6738C21.1465 28.9668 21.2324 29.207 21.4043 29.3945C21.5762 29.5781 21.7852 29.6699 22.0312 29.6699C22.2891 29.6699 22.5039 29.5684 22.6758 29.3652C22.8477 29.1582 22.9336 28.9277 22.9336 28.6738V28.1172C22.9336 28.0859 22.9492 28.0703 22.9805 28.0703H24.3398C24.3711 28.0703 24.3867 28.0859 24.3867 28.1172V28.6738C24.3867 29.123 24.2812 29.5332 24.0703 29.9043C23.8555 30.2715 23.5723 30.5664 23.2207 30.7891C22.8691 31.0078 22.4727 31.1172 22.0312 31.1172ZM29.7832 31H28.4355C28.3965 31 28.377 30.9805 28.377 30.9414L28.4004 22.6973C28.4004 22.666 28.416 22.6504 28.4473 22.6504H32.291C32.3301 22.6504 32.3496 22.666 32.3496 22.6973V24.0508C32.3496 24.082 32.334 24.0977 32.3027 24.0977H29.8418V25.9609H32.3027C32.334 25.9609 32.3496 25.9805 32.3496 26.0195L32.3613 27.3789C32.3613 27.4102 32.3418 27.4258 32.3027 27.4258H29.8418V30.9414C29.8418 30.9805 29.8223 31 29.7832 31ZM34.834 31H33.4746C33.4434 31 33.4277 30.9805 33.4277 30.9414L33.4512 22.6973C33.4512 22.666 33.4668 22.6504 33.498 22.6504H35.9238C36.3574 22.6504 36.7559 22.7559 37.1191 22.9668C37.4824 23.1777 37.7715 23.4609 37.9863 23.8164C38.2051 24.1719 38.3145 24.5742 38.3145 25.0234C38.3145 25.3164 38.2695 25.582 38.1797 25.8203C38.0898 26.0586 37.9844 26.2598 37.8633 26.4238C37.7461 26.5879 37.6387 26.709 37.541 26.7871C37.9746 27.2676 38.1914 27.832 38.1914 28.4805L38.2031 30.9414C38.2031 30.9805 38.1836 31 38.1445 31H36.7852C36.7539 31 36.7383 30.9883 36.7383 30.9648V28.4805C36.7383 28.1914 36.6367 27.9414 36.4336 27.7305C36.2305 27.5195 35.9805 27.4141 35.6836 27.4141H34.8926L34.8809 30.9414C34.8809 30.9805 34.8652 31 34.834 31ZM35.9238 24.0859H34.8926V25.9727H35.9238C36.1699 25.9727 36.3887 25.8809 36.5801 25.6973C36.7754 25.5137 36.873 25.2891 36.873 25.0234C36.873 24.7695 36.7793 24.5508 36.5918 24.3672C36.4043 24.1797 36.1816 24.0859 35.9238 24.0859ZM40.6348 31H39.2754C39.2363 31 39.2168 30.9805 39.2168 30.9414L39.2285 22.6973C39.2285 22.666 39.2441 22.6504 39.2754 22.6504H40.623C40.6543 22.6504 40.6699 22.666 40.6699 22.6973L40.6816 30.9414C40.6816 30.9805 40.666 31 40.6348 31ZM43.7754 31.1172C43.3496 31.1172 42.957 31.0078 42.5977 30.7891C42.2422 30.5703 41.957 30.2793 41.7422 29.916C41.5312 29.5488 41.4258 29.1465 41.4258 28.709V28.1582C41.4258 28.1152 41.4453 28.0938 41.4844 28.0938H42.832C42.8633 28.0938 42.8789 28.1152 42.8789 28.1582V28.709C42.8789 28.9707 42.9668 29.1973 43.1426 29.3887C43.3184 29.5762 43.5293 29.6699 43.7754 29.6699C44.0254 29.6699 44.2383 29.5742 44.4141 29.3828C44.5898 29.1875 44.6777 28.9629 44.6777 28.709C44.6777 28.416 44.4863 28.1602 44.1035 27.9414C44.041 27.9023 43.959 27.8555 43.8574 27.8008C43.7598 27.7422 43.6426 27.6758 43.5059 27.6016C43.3691 27.5273 43.2363 27.4551 43.1074 27.3848C42.9785 27.3105 42.8535 27.2402 42.7324 27.1738C42.2949 26.916 41.9688 26.5938 41.7539 26.207C41.543 25.8164 41.4375 25.3789 41.4375 24.8945C41.4375 24.4492 41.5469 24.0469 41.7656 23.6875C41.9844 23.332 42.2695 23.0508 42.6211 22.8438C42.9766 22.6328 43.3613 22.5273 43.7754 22.5273C44.2012 22.5273 44.5918 22.6328 44.9473 22.8438C45.3027 23.0586 45.5859 23.3438 45.7969 23.6992C46.0117 24.0547 46.1191 24.4531 46.1191 24.8945V25.8789C46.1191 25.9102 46.1035 25.9258 46.0723 25.9258H44.7246C44.6934 25.9258 44.6777 25.9102 44.6777 25.8789L44.666 24.8945C44.666 24.6133 44.5781 24.3848 44.4023 24.209C44.2266 24.0332 44.0176 23.9453 43.7754 23.9453C43.5293 23.9453 43.3184 24.0391 43.1426 24.2266C42.9668 24.4141 42.8789 24.6367 42.8789 24.8945C42.8789 25.1562 42.9336 25.375 43.043 25.5508C43.1562 25.7266 43.3613 25.8945 43.6582 26.0547C43.6895 26.0703 43.7617 26.1094 43.875 26.1719C43.9883 26.2344 44.1133 26.3047 44.25 26.3828C44.3906 26.457 44.5176 26.5254 44.6309 26.5879C44.7441 26.6465 44.8125 26.6816 44.8359 26.6934C45.2344 26.916 45.5488 27.1895 45.7793 27.5137C46.0137 27.8379 46.1309 28.2363 46.1309 28.709C46.1309 29.166 46.0254 29.5762 45.8145 29.9395C45.5996 30.3027 45.3145 30.5898 44.959 30.8008C44.6035 31.0117 44.209 31.1172 43.7754 31.1172ZM48.3691 31H47.0098C46.9785 31 46.9629 30.9805 46.9629 30.9414L46.9863 22.709C46.9863 22.6699 47.002 22.6504 47.0332 22.6504H48.3809C48.4121 22.6504 48.4277 22.6699 48.4277 22.709V25.5508L50.3086 22.6973C50.3398 22.666 50.3691 22.6504 50.3965 22.6504H51.7734C51.8086 22.6504 51.8164 22.666 51.7969 22.6973L49.7227 26.0078L52.0488 30.9531C52.0684 30.9844 52.0488 31 51.9902 31H50.5254C50.4863 31 50.4629 30.9844 50.4551 30.9531L48.832 27.4258L48.416 28.082V30.9414C48.416 30.9805 48.4004 31 48.3691 31Z" fill="black"/>
</svg>
